# AST/ASF file generated using VICON BodyLanguage
# -----------------------------------------------
:version 1.10
:name VICON
:units
  mass 1.0
  length 0.45
  angle deg
:documentation
   .ast/.asf automatically generated from VICON data using
   VICON BodyBuilder and BodyLanguage model FoxedUp or BRILLIANT.MOD
:root
   order TX TY TZ RX RY RZ
   axis XYZ
   position 0 0 0  
   orientation 0 0 0 
:bonedata
  begin
     id 1 
     name lhipjoint
     direction 0.627457 -0.725269 0.283342 
     length 2.53237 
     axis 0 0 0  XYZ
  end
  begin
     id 2 
     name lfemur
     direction 0.34202 -0.939693 0  
     length 7.32496  
     axis 0 0 20  XYZ
    dof rx ry rz
    limits (-160.0 20.0)
           (-70.0 70.0)
           (-60.0 70.0)
  end
  begin
     id 3 
     name ltibia
     direction 0.34202 -0.939693 0   
     length 7.69674   
     axis 0 0 20   XYZ
    dof rx
    limits (-10.0 170.0)
  end
  begin
     id 4 
     name lfoot
     direction 0.127289 -0.349722 0.928166   
     length 1.8612   
     axis -90 7.62852e-016 20   XYZ
    dof rx rz
    limits (-45.0 90.0)
           (-70.0 20.0)
  end
  begin
     id 5 
     name ltoes
     direction 1.53561e-011 -4.21864e-011 1   
     length 0.925608   
     axis -90 7.62852e-016 20   XYZ
    dof rx
    limits (-90.0 20.0)
  end
  begin
     id 6 
     name rhipjoint
     direction -0.609094 -0.738725 0.288599   
     length 2.48624  
     axis 0 0 0  XYZ 
  end
  begin
     id 7 
     name rfemur
     direction -0.34202 -0.939693 0   
     length 7.44259   
     axis 0 0 -20   XYZ
    dof rx ry rz
    limits (-160.0 20.0)
           (-70.0 70.0)
           (-70.0 60.0)
  end
  begin
     id 8 
     name rtibia
     direction -0.34202 -0.939693 0   
     length 7.7781   
     axis 0 0 -20   XYZ
    dof rx
    limits (-10.0 170.0)
 end
 begin
     id 9 
     name rfoot
     direction -0.107015 -0.294021 0.949789   
     length 2.14741  
     axis -90 -7.62852e-016 -20   XYZ
    dof rx rz
    limits (-45.0 90.0)
           (-20.0 70.0)
  end
  begin
     id 10 
     name rtoes
     direction -1.53497e-011 -4.21924e-011 1   
     length 1.0706   
     axis -90 -7.62852e-016 -20   XYZ
    dof rx
    limits (-90.0 20.0)
  end
  begin
     id 11 
     name lowerback
     direction -0.0142066 0.998112 -0.0597545   
     length 1.86627   
     axis 0 0 0   XYZ
    dof rx ry rz
    limits (-20.0 45.0)
           (-30.0 30.0)
           (-30.0 30.0)
  end
  begin
     id 12 
     name upperback
     direction 0.00547294 0.999744 0.0219437   
     length 1.86272   
     axis 0 0 0   XYZ
    dof rx ry rz
    limits (-20.0 45.0)
           (-30.0 30.0)
           (-30.0 30.0)
  end
  begin
     id 13 
     name thorax
     direction 0.0116162 0.998704 0.0495538   
     length 1.8703   
     axis 0 0 0   XYZ
    dof rx ry rz
    limits (-20.0 45.0)
           (-30.0 30.0)
           (-30.0 30.0)
  end
  begin
     id 14 
     name lowerneck
     direction -0.0106574 0.998739 0.0490586   
     length 1.8074   
     axis 0 0 0   XYZ
    dof rx ry rz
    limits (-20.0 45.0)
           (-30.0 30.0)
           (-30.0 30.0)
  end
  begin
     id 15 
     name upperneck
     direction 0.030527 0.976587 -0.212944   
     length 1.80681   
     axis 0 0 0   XYZ
    dof rx ry rz
    limits (-20.0 45.0)
           (-30.0 30.0)
           (-30.0 30.0)
  end
  begin
     id 16
     name head
     direction 0.00869225 0.997035 -0.0764531  
     length 1.8313  
     axis 0 0 0   XYZ
    dof rx ry rz
    limits (-20.0 45.0)
           (-30.0 30.0)
           (-30.0 30.0)
  end
  begin
     id 17 
     name lclavicle
     direction 0.915958 0.399447 0.0382386  
     length 3.78965  
     axis 0 0 0   XYZ
    dof ry rz
    limits (-20.0 10.0)
           (0.0 20.0)
  end
  begin
     id 18 
     name lhumerus
     direction 1 -4.48967e-011 3.19303e-027   
     length 4.78095   
     axis -180 -30 -90   XYZ
    dof rx ry rz
    limits (-60.0 90.0)
           (-90.0 90.0)
           (-90.0 90.0)
  end
  begin
     id 19
     name lradius
     direction 1 -4.48967e-011 -3.77974e-027   
     length 3.58615   
     axis -180 -30 -90   XYZ
    dof rx
    limits (-10.0 170.0)
  end
  begin
     id 20
     name lwrist
     direction 1 -4.48927e-011 1.2807e-027   
     length 1.79307   
     axis 1.91374e-015 90 90   XYZ
    dof ry
    limits (-180.0 0.0)
 end
  begin
     id 21 
     name lhand
     direction 1 -4.49036e-011 2.5614e-027   
     length 0.659812   
     axis -1.63439e-015 90 90   XYZ
    dof rx rz
    limits (-90.0 90.0)
           (-45.0 45.0)
  end
  begin
     id 22 
     name lfingers
     direction 1 -4.49052e-011 5.1228e-027   
     length 0.531957   
     axis -3.26879e-015 90 90   XYZ
    dof rx
    limits (0.0 90.0)
  end
  begin
     id 23
     name lthumb
     direction 0.707107 -6.35012e-011 0.707107   
     length 0.763787   
     axis -90 45 2.85299e-015   XYZ
    dof rx rz
    limits (-45.0 45.0)
           (-45.0 45.0)
  end
  begin
     id 24 
     name rclavicle
     direction -0.895351 0.435135 0.0948887   
     length 3.70497  
     axis 0 0 0   XYZ 
    dof ry rz
    limits (-10.0 20.0)
           (-20.0 0.0)
  end
  begin
     id 25 
     name rhumerus
     direction -1 -4.48971e-011 2.38946e-027  
     length 4.48913   
     axis -180 30 90   XYZ
    dof rx ry rz
    limits (-90.0 60.0)
           (-90.0 90.0)
           (-90.0 90.0)
  end
  begin
     id 26 
     name rradius
     direction -1 -4.4895e-011 4.38668e-027   
     length 3.7051   
     axis -180 30 90   XYZ
    dof rx
    limits (-10.0 170.0)
  end
  begin
     id 27 
     name rwrist
     direction -1 -4.49007e-011 1.2807e-027   
     length 1.85255   
     axis 1.91374e-015 -90 -90   XYZ
    dof ry
    limits (-180.0 0.0)
  end
  begin
     id 28
     name rhand
     direction -1 -4.48851e-011 2.5614e-027   
     length 0.449136   
     axis -1.63439e-015 -90 -90   XYZ
    dof rx rz
    limits (-90.0 90.0)
           (-45.0 45.0)
  end
  begin
     id 29
     name rfingers
     direction -1 -4.49128e-011 5.1228e-027   
     length 0.362105   
     axis -3.26879e-015 -90 -90   XYZ
    dof rx
    limits (0.0 90.0)
  end
  begin
     id 30
     name rthumb
     direction -0.707107 -6.34851e-011 0.707107   
     length 0.519912   
     axis -90 -45 -2.85299e-015   XYZ
    dof rx rz
    limits (-45.0 45.0)
           (-45.0 45.0)
  end
:hierarchy
  begin
    root lhipjoint rhipjoint lowerback
    lhipjoint lfemur
    lfemur ltibia
    ltibia lfoot
    lfoot ltoes
    rhipjoint rfemur
    rfemur rtibia
    rtibia rfoot
    rfoot rtoes
    lowerback upperback
    upperback thorax
    thorax lowerneck lclavicle rclavicle
    lowerneck upperneck
    upperneck head
    lclavicle lhumerus
    lhumerus lradius
    lradius lwrist
    lwrist lhand lthumb
    lhand lfingers
    rclavicle rhumerus
    rhumerus rradius
    rradius rwrist
    rwrist rhand rthumb
    rhand rfingers
  end

#!OML:ASF I:\Actors\actors\Patient Classification 2\Patient 1\Session 1\actor1.ASF
:FULLY-SPECIFIED
:DEGREES
27
root -0.570646 18.7086 5.85892 4.21108 -3.39032 -0.392381
lowerback 1.30822 0.911364 -1.72539
upperback -3.18271 1.17451 0.423856
thorax -4.05436 0.646869 1.3465
lowerneck -11.3814 -1.93042 -2.10419
upperneck 23.4464 -2.82791 2.2778
head 9.30751 -1.26439 0.817244
rclavicle -2.06006e-015 -3.60297e-015
rhumerus -49.1822 -0.17243 -87.1192
rradius 42.8871
rwrist 19.6505
rhand -7.03399 -37.027
rfingers 7.12502
rthumb 18.8381 -66.1348
lclavicle -2.06006e-015 -3.60297e-015
lhumerus -40.5447 1.90169 89.2267
lradius 34.7346
lwrist -10.7513
lhand -4.4206 -26.2682
lfingers 7.12502
lthumb 21.35 2.57561
rfemur 3.36233 5.60544 13.2776
rtibia 1.59028e-014
rfoot -16.7799 -11.6276
rtoes -6.74316
lfemur -5.21995 -6.85661 -14.0315
ltibia 19.9153
lfoot -23.0546 14.7836
ltoes -55.3669
28
root -0.570216 18.7083 5.86108 4.22834 -3.41635 -0.40501
lowerback 1.25698 0.920716 -1.70838
upperback -3.17685 1.18844 0.422968
thorax -4.01931 0.652934 1.33626
lowerneck -11.3878 -1.93297 -2.14261
upperneck 23.44 -2.83466 2.32561
head 9.30799 -1.26572 0.839331
rclavicle -1.52427e-014 -6.18717e-015
rhumerus -49.1819 -0.163075 -87.1205
rradius 42.9052
rwrist 19.6408
rhand -6.98015 -37.0684
rfingers 7.12502
rthumb 18.8899 -66.1712
lclavicle -1.52427e-014 -6.18717e-015
lhumerus -40.5538 1.89746 89.2321
lradius 34.7449
lwrist -10.7257
lhand -4.45691 -26.2446
lfingers 7.12502
lthumb 21.3151 2.6032
rfemur 3.34437 5.6302 13.2855
rtibia 9.54166e-015
rfoot -16.8011 -11.6137
rtoes -6.59084
lfemur -5.22722 -6.88131 -14.026
ltibia 19.9188
lfoot -23.1007 14.8212
ltoes -55.3484
29
root -0.570531 18.7082 5.86286 4.24063 -3.4223 -0.40817
lowerback 1.22068 0.926806 -1.70865
upperback -3.18452 1.19677 0.412379
thorax -4.00677 0.65687 1.32562
lowerneck -11.3193 -1.93527 -2.13635
upperneck 23.3925 -2.84638 2.35479
head 9.27909 -1.26829 0.847494
rclavicle 2.06123e-014 -1.77664e-014
rhumerus -49.2125 -0.192126 -87.1272
rradius 42.9299
rwrist 19.6784
rhand -6.88953 -37.0746
rfingers 7.12502
rthumb 18.9771 -66.1689
lclavicle 2.06123e-014 -1.77664e-014
lhumerus -40.5585 1.89954 89.2181
lradius 34.7115
lwrist -10.6871
lhand -4.51343 -26.2561
lfingers 7.12502
lthumb 21.2608 2.59784
rfemur 3.33714 5.63491 13.288
rtibia 6.36111e-015
rfoot -16.8294 -11.585
rtoes -6.35069
lfemur -5.2335 -6.87846 -14.0228
ltibia 19.9231
lfoot -23.1332 14.8058
ltoes -55.3103
30
root -0.570126 18.7086 5.86348 4.25513 -3.40723 -0.396666
lowerback 1.20824 0.931547 -1.70663
upperback -3.20106 1.20247 0.388853
thorax -4.01652 0.659439 1.30001
lowerneck -11.2629 -1.94484 -2.10451
upperneck 23.3648 -2.86821 2.36028
head 9.25891 -1.27572 0.841974
rclavicle -7.84656e-015 3.18055e-015
rhumerus -49.2368 -0.243253 -87.1374
rradius 42.9412
rwrist 19.6971
rhand -6.84218 -37.0224
rfingers 7.12502
rthumb 19.0226 -66.1121
lclavicle -7.84656e-015 3.18055e-015
lhumerus -40.5731 1.83644 89.2186
lradius 34.706
lwrist -10.6454
lhand -4.55558 -26.1913
lfingers 7.12502
lthumb 21.2204 2.66713
rfemur 3.3254 5.61731 13.2732
rtibia -4.77083e-015
rfoot -16.8056 -11.5913
rtoes -6.50617
lfemur -5.24716 -6.8829 -14.0326
ltibia 19.9221
lfoot -23.1329 14.7844
ltoes -55.3514
31
root -0.569475 18.7086 5.86414 4.25847 -3.39846 -0.40277
lowerback 1.19394 0.945307 -1.67171
upperback -3.19644 1.22162 0.370318
thorax -4.00305 0.667414 1.2607
lowerneck -11.2708 -1.96043 -2.10745
upperneck 23.361 -2.89515 2.38485
head 9.26021 -1.28582 0.847768
rclavicle -1.84963e-015 -1.49585e-014
rhumerus -49.231 -0.294546 -87.1332
rradius 42.9512
rwrist 19.6819
rhand -6.8544 -36.9548
rfingers 7.12502
rthumb 19.0108 -66.0457
lclavicle -1.84963e-015 -1.49585e-014
lhumerus -40.5502 1.79713 89.2155
lradius 34.6912
lwrist -10.6553
lhand -4.54177 -26.1769
lfingers 7.12502
lthumb 21.2336 2.68004
rfemur 3.32329 5.60873 13.2796
rtibia 1.90833e-014
rfoot -16.7846 -11.6148
rtoes -6.79354
lfemur -5.24826 -6.90052 -14.0283
ltibia 19.9128
lfoot -23.0995 14.816
ltoes -55.4253
32
root -0.56982 18.708 5.86526 4.24605 -3.39686 -0.400761
lowerback 1.18913 0.954642 -1.6661
upperback -3.19535 1.23392 0.357777
thorax -3.99919 0.67311 1.24413
lowerneck -11.2509 -1.97045 -2.11183
upperneck 23.3557 -2.9144 2.40923
head 9.25557 -1.29276 0.854859
rclavicle 7.70135e-015 -1.32689e-014
rhumerus -49.2419 -0.336717 -87.1281
rradius 42.9499
rwrist 19.6949
rhand -6.87194 -36.9487
rfingers 7.12502
rthumb 18.994 -66.0413
lclavicle 7.70135e-015 -1.32689e-014
lhumerus -40.5363 1.82736 89.1841
lradius 34.6604
lwrist -10.7083
lhand -4.51655 -26.227
lfingers 7.12502
lthumb 21.2579 2.62728
rfemur 3.34408 5.60844 13.2801
rtibia 1.59028e-015
rfoot -16.8021 -11.6096
rtoes -6.78575
lfemur -5.2292 -6.84124 -14.0293
ltibia 19.9006
lfoot -23.0468 14.7947
ltoes -55.4288
33
root -0.569681 18.7071 5.86662 4.23461 -3.41215 -0.371321
lowerback 1.18276 0.949335 -1.70821
upperback -3.19458 1.22529 0.349704
thorax -3.9953 0.669956 1.25994
lowerneck -11.2275 -1.96246 -2.08231
upperneck 23.3463 -2.90662 2.3965
head 9.24698 -1.28821 0.846583
rclavicle 9.73268e-015 1.3418e-014
rhumerus -49.2409 -0.316723 -87.1446
rradius 42.9467
rwrist 19.6891
rhand -6.91676 -36.9108
rfingers 7.12502
rthumb 18.9509 -66.0076
lclavicle 9.73268e-015 1.3418e-014
lhumerus -40.5364 1.8849 89.1459
lradius 34.6495
lwrist -10.7421
lhand -4.50746 -26.2589
lfingers 7.12502
lthumb 21.2666 2.59433
rfemur 3.35957 5.62247 13.245
rtibia 1.27222e-014
rfoot -16.8008 -11.5892
rtoes -6.59698
lfemur -5.20363 -6.78302 -14.0652
ltibia 19.8916
lfoot -23.0379 14.7573
ltoes -55.3997
